# xmcd CD database file
#
# Track frame offsets:
#	150
#	17775
#	32347
#	50439
#	67804
#	83206
#	98891
#	115376
#	134406
#	153274
#	167153
#	180118
#	192970
#	215514
#	232494
#	245999
#	259836
#
# Disc length: 3625 seconds
#
# Revision: 5
# Processed by: cddbd v1.5.1PL0 Copyright (c) Steve Scherf et al.
# Submitted via: Feurio! 1.66 - http://www.feurio.com
#
DISCID=eb0e2711
DTITLE=Shanty-Chor Dortmund - Seemanns - Weihnacht
DYEAR=1900
DGENRE=Country
TTITLE0=Weihnachtszeit auf den Meeren
TTITLE1=Im WInter
TTITLE2=Zu Hause brennt ein Liederbaum
TTITLE3=Auf Weihnachts - Hafenwache
TTITLE4=Wenn der weiﬂe Schnee vom Himmel f‰llt
TTITLE5=Ein Matrose denkt an die Weihnacht
TTITLE6=Frei wie der Wind
TTITLE7=I am Sailing
TTITLE8=Quando nascette Ninno
TTITLE9=Little Drummer Boy
TTITLE10=Ave Maria No Morro
TTITLE11=Weihnacht auf hoher See
TTITLE12=Wiehnacht an de Waterkant
TTITLE13=Solang der Leuchtturm noch steht
TTITLE14=Seemanns Weihnacht
TTITLE15=Weihnacht, Weihnacht
TTITLE16=Weiﬂe Weihnacht
EXTD=
EXTT0=
EXTT1=
EXTT2=
EXTT3=
EXTT4=
EXTT5=
EXTT6=
EXTT7=
EXTT8=
EXTT9=
EXTT10=
EXTT11=
EXTT12=
EXTT13=
EXTT14=
EXTT15=
EXTT16=
PLAYORDER=
